<?xml version="1.0" encoding="UTF-8"?>
<svg width="96px" height="96px" viewBox="0 0 96 96" version="1.1" xmlns="http://www.w3.org/2000/svg" xmlns:xlink="http://www.w3.org/1999/xlink">
    <!-- Generator: Sketch 48.2 (47327) - http://www.bohemiancoding.com/sketch -->
    <title>ico_grid_inactive</title>
    <desc>Created with Sketch.</desc>
    <defs/>
    <g id="Page-1" stroke="none" stroke-width="1" fill="none" fill-rule="evenodd" opacity="0.403023098" stroke-linecap="round" stroke-linejoin="round">
        <g id="GRID" transform="translate(0.000000, -126.000000)" stroke="#666666" stroke-width="2">
            <g id="ico_grid_inactive" transform="translate(0.000000, 126.000000)">
                <g id="ico_grid_inactive_shapes" transform="translate(17.000000, 17.000000)">
                    <path d="M20,0 L6,62" id="Shape"/>
                    <path d="M20,0 L34,62" id="Shape"/>
                    <polygon id="Shape" points="40 35 0 35 13.9 27 26.1 27"/>
                    <polygon id="Shape" points="40 19 0 19 17.5 11 22.5 11"/>
                    <path d="M62,62 L0,62" id="Shape"/>
                    <path d="M13.8,27 L27.9,35" id="Shape"/>
                    <path d="M26,27 L12.1,35" id="Shape"/>
                    <path d="M27.9,35 L6,62" id="Shape"/>
                    <path d="M12.1,35 L34,62" id="Shape"/>
                    <path d="M22.5,11 L15.7,19" id="Shape"/>
                    <path d="M17.5,11 L24.3,19" id="Shape"/>
                    <path d="M52,31 L45,62" id="Shape"/>
                    <path d="M52,31 L59,62" id="Shape"/>
                    <polygon id="Shape" points="62 48.5 42 48.5 49 44.5 55 44.5"/>
                    <polygon id="Shape" points="62 40.5 42 40.5 50.7 36.5 53.2 36.5"/>
                    <path d="M56,48.5 L45,62" id="Shape"/>
                    <path d="M48,48.5 L59,62" id="Shape"/>
                </g>
            </g>
        </g>
    </g>
</svg>