<?xml version="1.0" encoding="UTF-8" standalone="no"?>
<svg
   version="1.1"
   id="Ebene_1"
   x="0px"
   y="0px"
   viewBox="0 0 120 12.785"
   xml:space="preserve"
   width="31.75mm"
   height="12.785mm"
   xmlns:xlink="http://www.w3.org/1999/xlink"
   xmlns="http://www.w3.org/2000/svg"
   xmlns:svg="http://www.w3.org/2000/svg"><defs
   id="defs143" />
<style
   type="text/css"
   id="style77">
	.st0{fill:#FFFFFF;}
	.st1{clip-path:url(#SVGID_2_);}
	.st2{clip-path:url(#SVGID_4_);}
	.st3{clip-path:url(#SVGID_6_);fill:#647A84;}
	.st4{clip-path:url(#SVGID_8_);}
	.st5{clip-path:url(#SVGID_10_);fill:#AFCA0B;}
	.st6{clip-path:url(#SVGID_12_);fill:url(#SVGID_13_);}
	.st7{clip-path:url(#SVGID_2_);fill:#FFDE14;}
	.st8{clip-path:url(#SVGID_15_);fill:url(#SVGID_16_);}
	.st9{clip-path:url(#SVGID_18_);fill:#AFCA11;}
</style>
<g
   transform="translate(-54.75,-139.97813)"
   id="g138">
	<g
   id="g136">
		<defs
   id="defs80">
			<rect
   id="SVGID_1_"
   x="0"
   y="0"
   width="181.41"
   height="181.41" />
		</defs>
		
		<g
   class="st1"
   clip-path="url(#SVGID_2_)"
   id="g97">
			<g
   id="g95">
				<defs
   id="defs83">
					<rect
   id="SVGID_3_"
   x="54.110001"
   y="146.83"
   width="120.25"
   height="24.34" />
				</defs>
				
				<g
   class="st2"
   clip-path="url(#SVGID_4_)"
   id="g93">
					<defs
   id="defs86">
						<rect
   id="SVGID_5_"
   x="54.110001"
   y="146.83"
   width="120.25"
   height="24.34" />
					</defs>
					<clipPath
   id="SVGID_6_">
						<use
   xlink:href="#SVGID_5_"
   style="overflow:visible"
   id="use88"
   x="0"
   y="0"
   width="100%"
   height="100%" />
					</clipPath>
					<path
   class="st3"
   d="m 163.69,151.53 c -0.88,0 -1.9,0.25 -3.08,0.74 v -0.68 h -1.79 v 14.98 h 1.87 v -12.61 c 0.96,-0.46 1.86,-0.68 2.68,-0.68 1.3,0 1.95,0.64 1.95,1.92 v 11.37 h 1.87 V 155.2 c 0,-0.44 -0.04,-0.79 -0.13,-1.05 0.95,-0.58 1.9,-0.87 2.84,-0.87 1.28,0 1.92,0.64 1.92,1.92 v 11.37 h 1.9 V 155 c 0,-1.11 -0.32,-1.96 -0.95,-2.57 -0.63,-0.61 -1.55,-0.91 -2.74,-0.91 -1.19,0 -2.4,0.36 -3.61,1.08 -0.63,-0.71 -1.54,-1.07 -2.73,-1.07 m -8.56,0.1 c -0.18,0.05 -0.31,0.09 -0.41,0.12 -0.1,0.03 -0.24,0.09 -0.42,0.2 -0.18,0.11 -0.3,0.17 -0.34,0.2 -0.04,0.03 -0.18,0.12 -0.4,0.28 -0.22,0.16 -0.36,0.25 -0.41,0.29 v -1.13 h -1.79 v 14.98 h 1.87 V 154.5 c 0.53,-0.37 0.87,-0.61 1.03,-0.71 0.51,-0.33 1.08,-0.5 1.71,-0.5 h 0.9 v -1.79 h -0.66 c -0.46,0 -0.82,0.05 -1.08,0.13 m -15.66,11.11 c 0,1.25 0.35,2.24 1.05,2.97 0.7,0.74 1.77,1.11 3.21,1.11 1.44,0 2.51,-0.37 3.21,-1.11 0.7,-0.74 1.05,-1.73 1.05,-2.97 v -7.35 c 0,-1.25 -0.35,-2.24 -1.05,-2.97 -0.7,-0.74 -1.77,-1.11 -3.21,-1.11 -1.44,0 -2.51,0.37 -3.21,1.11 -0.7,0.74 -1.05,1.73 -1.05,2.97 z m 6.68,-0.02 c 0,1.65 -0.81,2.47 -2.42,2.47 -1.62,0 -2.42,-0.82 -2.42,-2.47 v -7.29 c 0,-1.63 0.81,-2.45 2.42,-2.45 1.61,0 2.42,0.82 2.42,2.45 z m -16.19,3.84 h 1.87 v -7.71 h 5.29 v -1.69 h -5.29 v -6.63 h 5.58 v -1.66 h -7.45 z m -8.66,-14.93 c -0.18,0.05 -0.31,0.09 -0.41,0.12 -0.1,0.03 -0.24,0.09 -0.42,0.2 -0.18,0.11 -0.3,0.17 -0.34,0.2 -0.04,0.03 -0.18,0.12 -0.4,0.28 -0.22,0.16 -0.36,0.25 -0.41,0.29 v -1.13 h -1.79 v 14.98 h 1.87 V 154.5 c 0.53,-0.37 0.87,-0.61 1.03,-0.71 0.51,-0.33 1.08,-0.5 1.71,-0.5 h 0.9 v -1.79 h -0.66 c -0.45,0 -0.81,0.05 -1.08,0.13 m -13.66,3.79 c 0,-1.65 0.82,-2.47 2.45,-2.47 1.63,0 2.45,0.83 2.45,2.47 v 3.03 h -4.9 z m 3.11,11.27 c 1.21,0 2.25,-0.14 3.13,-0.42 v -1.74 c -1.11,0.32 -2.18,0.47 -3.21,0.47 -1.04,0 -1.8,-0.19 -2.29,-0.58 -0.49,-0.39 -0.74,-0.97 -0.74,-1.76 V 160 h 6.69 v -4.58 c 0,-1.25 -0.35,-2.24 -1.04,-2.99 -0.69,-0.75 -1.76,-1.12 -3.2,-1.12 -1.44,0 -2.51,0.37 -3.22,1.12 -0.71,0.75 -1.07,1.74 -1.07,2.99 v 7.32 c 0,2.64 1.65,3.95 4.95,3.95 m -10.19,-15.11 h -2.47 c -1.23,0 -2.21,0.35 -2.95,1.04 -0.74,0.69 -1.11,1.66 -1.11,2.91 v 7.34 c 0,1.21 0.31,2.14 0.94,2.79 0.62,0.65 1.52,0.97 2.7,0.97 1.18,0 2.16,-0.32 2.95,-0.95 v 0.87 h 1.82 l 0.44,-18.95 H 101 Z m 0,12.48 c -0.63,0.6 -1.47,0.9 -2.53,0.9 -1.42,0 -2.13,-0.74 -2.13,-2.21 v -7.19 c 0,-1.51 0.83,-2.26 2.5,-2.26 h 2.16 z m -16.17,-8.64 c 0,-1.65 0.82,-2.47 2.45,-2.47 1.63,0 2.45,0.83 2.45,2.47 v 3.03 h -4.9 z m 3.11,11.27 c 1.21,0 2.25,-0.14 3.13,-0.42 v -1.74 c -1.11,0.32 -2.18,0.47 -3.21,0.47 -1.04,0 -1.8,-0.19 -2.29,-0.58 -0.49,-0.39 -0.74,-0.97 -0.74,-1.76 V 160 h 6.69 v -4.58 c 0,-1.25 -0.35,-2.24 -1.04,-2.99 -0.69,-0.75 -1.76,-1.12 -3.2,-1.12 -1.44,0 -2.51,0.37 -3.22,1.12 -0.71,0.75 -1.07,1.74 -1.07,2.99 v 7.32 c 0,2.64 1.65,3.95 4.95,3.95 m -10.19,0.11 c 0,0.72 -0.14,1.24 -0.42,1.55 -0.28,0.32 -0.73,0.47 -1.34,0.47 -0.19,0 -0.43,-0.02 -0.71,-0.05 v 1.68 c 0.26,0.05 0.52,0.08 0.76,0.08 1.18,0 2.07,-0.33 2.67,-0.99 0.61,-0.66 0.91,-1.58 0.91,-2.75 v -15.11 h -1.87 z m 2.08,-18.12 c 0,-0.81 -0.38,-1.21 -1.14,-1.21 -0.76,0 -1.15,0.4 -1.15,1.21 0,0.81 0.38,1.21 1.15,1.21 0.77,0 1.14,-0.4 1.14,-1.21 m -17.14,2.9 h -1.79 v 14.98 h 1.87 v -12.61 c 0.97,-0.46 1.86,-0.68 2.69,-0.68 1.3,0 1.95,0.64 1.95,1.92 v 11.37 h 1.87 V 155 c 0,-1.11 -0.32,-1.96 -0.95,-2.57 -0.63,-0.61 -1.43,-0.91 -2.41,-0.91 -0.98,0 -2.05,0.25 -3.22,0.74 v -0.68 z m -7.29,14.98 h 1.87 v -14.87 h -1.87 z m 2.08,-17.88 c 0,-0.81 -0.38,-1.21 -1.14,-1.21 -0.76,0 -1.15,0.4 -1.15,1.21 0,0.81 0.38,1.21 1.15,1.21 0.76,0.01 1.14,-0.4 1.14,-1.21"
   clip-path="url(#SVGID_6_)"
   id="path91" />
				</g>
			</g>
		</g>
		<g
   class="st1"
   clip-path="url(#SVGID_2_)"
   id="g134">
			<g
   id="g132">
				<defs
   id="defs100">
					<rect
   id="SVGID_7_"
   x="54.110001"
   y="121.56"
   width="121.28"
   height="23.139999" />
				</defs>
				<clipPath
   id="SVGID_8_">
					<use
   xlink:href="#SVGID_7_"
   style="overflow:visible"
   id="use102"
   x="0"
   y="0"
   width="100%"
   height="100%" />
				</clipPath>
				<g
   class="st4"
   clip-path="url(#SVGID_8_)"
   id="g113">
					<defs
   id="defs106">
						<rect
   id="SVGID_9_"
   x="54.110001"
   y="121.56"
   width="121.28"
   height="23.139999" />
					</defs>
					<clipPath
   id="SVGID_10_">
						<use
   xlink:href="#SVGID_9_"
   style="overflow:visible"
   id="use108"
   x="0"
   y="0"
   width="100%"
   height="100%" />
					</clipPath>
					<path
   class="st5"
   d="m 162.28,129.36 c 0,2.03 1.01,3.61 3.02,4.73 l 3.33,1.8 c 0.54,0.29 0.91,0.56 1.1,0.79 0.2,0.24 0.3,0.6 0.3,1.07 v 0.47 c 0,1.02 -0.89,1.52 -2.67,1.52 -1.78,0 -3.38,-0.3 -4.79,-0.9 v 4.51 c 1.14,0.48 2.83,0.72 5.08,0.72 2.25,0 4,-0.45 5.24,-1.35 1.24,-0.9 1.87,-2.19 1.87,-3.87 v -1.93 c 0,-1.87 -0.85,-3.26 -2.55,-4.2 l -3.55,-1.99 c -0.66,-0.35 -1.09,-0.67 -1.29,-0.95 -0.2,-0.28 -0.3,-0.71 -0.3,-1.29 v -0.47 c 0,-0.48 0.14,-0.85 0.44,-1.1 0.29,-0.26 0.85,-0.39 1.68,-0.39 1.62,0 3.06,0.27 4.32,0.81 v -4.48 c -1.04,-0.44 -2.61,-0.65 -4.71,-0.65 -2.1,0 -3.72,0.45 -4.84,1.35 -1.12,0.9 -1.68,2.18 -1.68,3.84 z m -9.34,-2.71 1.49,8.33 h -2.92 z m 7.52,17.26 -4.17,-21.55 h -6.5 l -4.23,21.55 h 4.45 l 0.84,-4.98 h 4.26 l 0.9,4.98 z m -26.27,0 h 10.48 v -3.92 h -5.75 v -17.63 h -4.73 z m -15.47,-5.07 c 0,1.66 0.58,2.94 1.73,3.86 1.15,0.91 2.84,1.37 5.05,1.37 2.22,0 4.14,-0.44 5.75,-1.31 v -10.42 h -4.54 v 7.28 c -0.33,0.17 -0.8,0.25 -1.41,0.25 -0.61,0 -1.07,-0.13 -1.38,-0.39 -0.31,-0.26 -0.47,-0.64 -0.47,-1.14 v -10.23 c 0,-0.5 0.22,-0.89 0.65,-1.18 0.43,-0.29 1.28,-0.43 2.52,-0.43 1.24,0 2.49,0.24 3.73,0.72 v -4.42 c -1.18,-0.39 -2.64,-0.59 -4.39,-0.59 -2.32,0 -4.11,0.48 -5.36,1.45 -1.25,0.96 -1.88,2.26 -1.88,3.9 z m -8.04,5.07 h 4.73 v -21.55 h -4.73 z m -9.18,-15.61 -2.15,-5.94 h -5.04 l 4.6,10.82 -4.6,10.73 h 5.07 l 2.11,-5.88 1.99,5.88 h 5.07 l -4.63,-10.73 4.63,-10.82 h -5.04 z m -20.13,15.61 h 10.92 v -4.04 h -6.25 v -4.85 h 5.41 v -4.04 h -5.41 v -4.57 h 6.25 v -4.04 H 81.37 Z m -11.96,0 h 10.48 v -3.92 h -5.75 v -17.63 h -4.73 z m -14.66,0 h 4.7 v -6.22 h 2.33 c 1.68,0 3,-0.4 3.96,-1.21 0.96,-0.81 1.45,-2 1.45,-3.58 v -5.75 c 0,-1.57 -0.48,-2.77 -1.45,-3.58 -0.96,-0.81 -2.29,-1.21 -3.96,-1.21 h -7.03 z m 7.78,-11.57 c 0,0.87 -0.45,1.31 -1.34,1.31 h -1.74 v -7.25 h 1.74 c 0.89,0 1.34,0.43 1.34,1.31 z"
   clip-path="url(#SVGID_10_)"
   id="path111" />
				</g>
				<g
   class="st4"
   clip-path="url(#SVGID_8_)"
   id="g130">
					<defs
   id="defs116">
						<path
   id="SVGID_11_"
   d="m 168.62,135.89 c 0.54,0.29 0.91,0.55 1.1,0.79 0.2,0.24 0.3,0.6 0.3,1.07 v 0.47 c 0,1.02 -0.89,1.52 -2.67,1.52 -1.78,0 -3.38,-0.3 -4.79,-0.9 v 4.51 c 1.14,0.48 2.83,0.71 5.08,0.71 2.25,0 4,-0.45 5.24,-1.35 1.24,-0.9 1.87,-2.19 1.87,-3.87 v -1.93 c 0,-0.11 -0.03,-0.21 -0.04,-0.31 -2.3,-0.47 -4.7,-0.91 -7.21,-1.32 z m -113.87,0.43 v 7.59 h 4.7 v -6.22 h 2.33 c 1.68,0 3,-0.4 3.96,-1.21 0.65,-0.54 1.06,-1.28 1.27,-2.17 -4.34,0.59 -8.44,1.26 -12.26,2.01 M 69.41,134 v 9.91 h 10.48 v -3.92 h -5.75 v -6.56 c -1.61,0.18 -3.18,0.37 -4.73,0.57 m 76.16,9.91 h 4.45 l 0.84,-4.97 h 4.26 l 0.9,4.97 h 4.45 l -1.92,-9.92 c -1.44,-0.18 -2.9,-0.36 -4.39,-0.52 l 0.27,1.52 h -2.92 l 0.3,-1.77 c -1.34,-0.14 -2.7,-0.27 -4.07,-0.39 z m -64.2,-11.18 v 11.18 h 10.92 v -4.04 h -6.25 v -4.85 h 5.41 V 132 c -3.45,0.2 -6.81,0.44 -10.08,0.73 m 52.82,11.18 h 10.48 v -3.92 h -5.75 v -7.84 c -1.56,-0.1 -3.13,-0.19 -4.73,-0.27 z m -35.91,-12.23 0.64,1.5 -4.6,10.73 h 5.07 l 2.11,-5.88 1.99,5.88 h 5.07 l -4.63,-10.73 0.73,-1.71 c -2.15,0.05 -4.28,0.13 -6.38,0.21 m 20.44,7.16 c 0,1.66 0.58,2.94 1.73,3.86 1.15,0.91 2.84,1.37 5.05,1.37 2.21,0 4.14,-0.43 5.75,-1.31 v -10.42 h -4.54 v 7.28 c -0.33,0.17 -0.8,0.25 -1.42,0.25 -0.61,0 -1.07,-0.13 -1.38,-0.39 -0.31,-0.26 -0.47,-0.64 -0.47,-1.13 v -6.87 c -1.56,-0.04 -3.14,-0.06 -4.73,-0.08 v 7.44 z m -8.04,-7.45 v 12.52 h 4.73 v -12.53 c -0.47,0 -0.93,-0.01 -1.4,-0.01 -1.12,0 -2.22,0.01 -3.33,0.02" />
					</defs>
					<clipPath
   id="SVGID_12_">
						<use
   xlink:href="#SVGID_11_"
   style="overflow:visible"
   id="use118"
   x="0"
   y="0"
   width="100%"
   height="100%" />
					</clipPath>
					
						<radialGradient
   id="SVGID_13_"
   cx="-34.4804"
   cy="260.28519"
   r="0.68699998"
   gradientTransform="matrix(32.166,0,0,-32.166,1223.5194,8516.6758)"
   gradientUnits="userSpaceOnUse">
						<stop
   offset="0"
   style="stop-color:#AFCA0B"
   id="stop121" />
						<stop
   offset="9.340660e-04"
   style="stop-color:#AFCA0B"
   id="stop123" />
						<stop
   offset="1"
   style="stop-color:#95C11F"
   id="stop125" />
					</radialGradient>
					<rect
   x="54.75"
   y="131.37"
   class="st6"
   width="120"
   height="12.7"
   clip-path="url(#SVGID_12_)"
   id="rect128"
   style="fill:url(#SVGID_13_)" />
				</g>
			</g>
		</g>
	</g>
</g>
</svg>
