<?xml version="1.0" encoding="UTF-8"?>
<svg width="96px" height="96px" viewBox="0 0 96 96" version="1.1" xmlns="http://www.w3.org/2000/svg" xmlns:xlink="http://www.w3.org/1999/xlink">
    <!-- Generator: Sketch 48.2 (47327) - http://www.bohemiancoding.com/sketch -->
    <title>ic_commercial_active</title>
    <desc>Created with Sketch.</desc>
    <defs></defs>
    <g id="Page-1" stroke="none" stroke-width="1" fill="none" fill-rule="evenodd">
        <g id="COMMERCIAL" transform="translate(0.000000, -80.000000)">
            <g id="ic_commercial_active">
                <g id="ic_commercial_active_shape" transform="translate(14.000000, 0.000000)">
                    <g id="squares" transform="translate(1.000000, 125.000000)" stroke="#666666" stroke-width="2">
                        <path d="M-1,34 L-1,-0.135427262 L0.0123037561,-0.122971181 L10,-1.11022302e-15 L20,-1.11022302e-15 L29.9876962,7.5694072e-05 L40.0047325,-0.123035677 L67,0.00472137356 L67,34 L-1,34 Z" id="Path-3"></path>
                        <rect id="Rectangle-path" fill="#FFFC0C" fill-rule="nonzero" stroke-linecap="round" stroke-linejoin="round" x="6" y="20" width="6" height="6"></rect>
                        <rect id="Rectangle-path" fill="#FFFC0C" fill-rule="nonzero" stroke-linecap="round" stroke-linejoin="round" x="12" y="20" width="6" height="6"></rect>
                        <rect id="Rectangle-path" fill="#FFFC0C" fill-rule="nonzero" stroke-linecap="round" stroke-linejoin="round" x="18" y="20" width="6" height="6"></rect>
                        <rect id="Rectangle-path" fill="#FFFC0C" fill-rule="nonzero" stroke-linecap="round" stroke-linejoin="round" x="24" y="20" width="6" height="6"></rect>
                        <rect id="Rectangle-path" fill="#FFFC0C" fill-rule="nonzero" stroke-linecap="round" stroke-linejoin="round" x="30" y="20" width="6" height="6"></rect>
                        <rect id="Rectangle-path" fill="#FFFC0C" fill-rule="nonzero" stroke-linecap="round" stroke-linejoin="round" x="36" y="20" width="6" height="6"></rect>
                        <rect id="Rectangle-path" fill="#FFFC0C" fill-rule="nonzero" stroke-linecap="round" stroke-linejoin="round" x="42" y="20" width="6" height="6"></rect>
                        <rect id="Rectangle-path" fill="#FFFC0C" fill-rule="nonzero" stroke-linecap="round" stroke-linejoin="round" x="48" y="20" width="6" height="6"></rect>
                        <rect id="Rectangle-path" fill="#FFFC0C" fill-rule="nonzero" stroke-linecap="round" stroke-linejoin="round" x="6" y="8" width="6" height="6"></rect>
                        <rect id="Rectangle-path" fill="#FFFC0C" fill-rule="nonzero" stroke-linecap="round" stroke-linejoin="round" x="12" y="8" width="6" height="6"></rect>
                        <rect id="Rectangle-path" fill="#FFFC0C" fill-rule="nonzero" stroke-linecap="round" stroke-linejoin="round" x="18" y="8" width="6" height="6"></rect>
                        <rect id="Rectangle-path" fill="#FFFC0C" fill-rule="nonzero" stroke-linecap="round" stroke-linejoin="round" x="24" y="8" width="6" height="6"></rect>
                        <rect id="Rectangle-path" fill="#FFFC0C" fill-rule="nonzero" stroke-linecap="round" stroke-linejoin="round" x="30" y="8" width="6" height="6"></rect>
                        <rect id="Rectangle-path" fill="#FFFC0C" fill-rule="nonzero" stroke-linecap="round" stroke-linejoin="round" x="36" y="8" width="6" height="6"></rect>
                        <rect id="Rectangle-path" fill="#FFFC0C" fill-rule="nonzero" stroke-linecap="round" stroke-linejoin="round" x="42" y="8" width="6" height="6"></rect>
                        <rect id="Rectangle-path" fill="#FFFC0C" fill-rule="nonzero" stroke-linecap="round" stroke-linejoin="round" x="48" y="8" width="6" height="6"></rect>
                        <rect id="Rectangle-path" fill="#FFFC0C" fill-rule="nonzero" stroke-linecap="round" stroke-linejoin="round" x="54" y="20" width="6" height="6"></rect>
                        <rect id="Rectangle-path" fill="#FFFC0C" fill-rule="nonzero" stroke-linecap="round" stroke-linejoin="round" x="54" y="8" width="6" height="6"></rect>
                    </g>
                    <polygon id="Rectangle-6" fill="#666666" points="0 124 15 119 15 124 28.9461058 119 28.9461058 124 43 119 43 125 0 125"></polygon>
                </g>
            </g>
        </g>
    </g>
</svg>