<?xml version="1.0" encoding="utf-8"?>
<!-- Generator: Adobe Illustrator 24.0.3, SVG Export Plug-In . SVG Version: 6.00 Build 0)  -->
<svg version="1.1" id="Ebene_1" xmlns="http://www.w3.org/2000/svg" xmlns:xlink="http://www.w3.org/1999/xlink" x="0px" y="0px"
	 viewBox="0 0 259 34.5" style="enable-background:new 0 0 259 34.5;" xml:space="preserve">
<g>
	<g>
		<g>
			<g>
				<path d="M248.07,7.52h-5.01v20.83h5.33V12.78c0.52-0.31,1.08-0.46,1.69-0.46c0.61,0,0.92,0.28,0.92,0.85v15.18h5.4V11.87
					c0-1.48-0.41-2.59-1.22-3.34c-0.81-0.74-1.89-1.11-3.23-1.11s-2.64,0.34-3.88,1.02V7.52z M231.49,17.09
					c-1.06,0-1.59-0.46-1.59-1.38v-2.96c0-0.92,0.53-1.38,1.59-1.38s1.59,0.46,1.59,1.38v2.97
					C233.08,16.63,232.55,17.09,231.49,17.09 M239.71,5.09h-0.56c-2,0-3.27,0.91-3.81,2.72c-1.04-0.42-2.32-0.64-3.85-0.64
					c-2.31,0-4.03,0.48-5.17,1.45s-1.71,2.33-1.71,4.09v3.04c0,2.64,1.21,4.35,3.64,5.15c-1.32,0.24-1.98,1.09-1.98,2.58v0.56
					c0,1.11,0.42,1.91,1.27,2.4c0.85,0.49,2.12,0.74,3.81,0.74h2.15c0.8,0,1.2,0.24,1.2,0.71v0.18c0,0.4-0.23,0.69-0.69,0.86
					c-0.46,0.18-1.3,0.26-2.52,0.26h-0.74c-1.27,0-2.49-0.19-3.67-0.58s-2.09-0.84-2.75-1.36v4.84c0.56,0.4,1.42,0.76,2.58,1.08
					c1.15,0.32,2.48,0.48,3.99,0.48h1.31c2.47,0,4.33-0.48,5.58-1.43s1.87-2.29,1.87-4.01v-0.88c0-1.53-0.44-2.65-1.32-3.37
					s-2.23-1.08-4.04-1.08h-1.94c-0.54,0-0.91-0.05-1.11-0.16s-0.3-0.31-0.3-0.62c0-0.52,0.31-0.78,0.92-0.78
					c2.19-0.05,3.82-0.55,4.91-1.52c1.08-0.96,1.62-2.32,1.62-4.06V12.7c0-1.13-0.22-2.07-0.67-2.82c0.33-0.05,0.59-0.07,0.78-0.07
					h1.24V5.09H239.71z M215.47,28.35h5.33V8.09h-5.33V28.35z M221.08,4.15c0-1.85-0.98-2.77-2.95-2.77s-2.95,0.92-2.95,2.77
					s0.98,2.77,2.95,2.77S221.08,6,221.08,4.15 M199.65,13.95c0,1.88,0.83,3.39,2.51,4.52c2.42,1.6,3.78,2.54,4.06,2.82
					c0.23,0.21,0.35,0.49,0.35,0.85v0.32c0,0.45-0.22,0.78-0.65,1.01c-0.44,0.22-1.32,0.34-2.66,0.34s-2.57-0.16-3.67-0.49v4.77
					c1.27,0.31,2.8,0.46,4.59,0.46c5.13,0,7.7-1.95,7.7-5.86v-0.88c0-1.06-0.24-1.94-0.72-2.65c-0.48-0.71-1.17-1.35-2.07-1.94
					l-2.86-1.91c-0.59-0.4-0.97-0.7-1.15-0.9s-0.26-0.44-0.26-0.72v-0.28c0-0.47,0.17-0.81,0.51-1.02s1.14-0.32,2.4-0.32
					s2.42,0.18,3.48,0.53V7.91c-1.13-0.35-2.57-0.53-4.31-0.53c-2.54,0-4.38,0.48-5.52,1.43s-1.71,2.37-1.71,4.25v0.89H199.65z
					 M188.35,12.93c0-0.89,0.52-1.34,1.55-1.34c1.04,0,1.55,0.45,1.55,1.34v3.04h-3.11L188.35,12.93L188.35,12.93z M190.58,28.56
					c1.88,0,3.65-0.22,5.29-0.67v-4.66c-1.58,0.47-3.03,0.71-4.36,0.71s-2.19-0.15-2.58-0.44c-0.39-0.29-0.58-0.79-0.58-1.5v-1.98
					h8.01v-7.17c0-3.79-2.15-5.68-6.46-5.68c-2.24,0-3.91,0.5-5.01,1.5c-1.11,1-1.66,2.39-1.66,4.18v9.57
					C183.23,26.52,185.68,28.56,190.58,28.56 M173.95,7.52h-1.55c-2.21,0-3.86,0.56-4.94,1.68s-1.62,2.67-1.62,4.64v9.85
					c0,1.51,0.39,2.68,1.16,3.53c0.78,0.85,1.95,1.27,3.51,1.27s2.77-0.54,3.62-1.62v1.48h5.19V1.98h-5.37V7.52z M173.98,23.23
					c-0.47,0.28-1.06,0.42-1.76,0.42c-0.71,0-1.06-0.31-1.06-0.92v-8.72c0-1.18,0.55-1.76,1.66-1.76h1.16L173.98,23.23L173.98,23.23
					z M150.12,4.63l-0.71,3.64h-2.29v2.22h2.19v13.52c0,2.99,1.58,4.48,4.73,4.48c0.82,0,1.71-0.12,2.65-0.35v-2.29
					c-0.78,0.26-1.58,0.39-2.4,0.39c-0.82,0-1.44-0.18-1.84-0.55c-0.4-0.36-0.6-0.96-0.6-1.78V10.5h4.48V8.28h-4.48V4.64
					L150.12,4.63L150.12,4.63z M135.16,8.27h-2.4v20.09h2.51V11.45c1.29-0.61,2.49-0.92,3.6-0.92c1.74,0,2.61,0.86,2.61,2.58v15.25
					h2.51v-15.5c0-1.48-0.42-2.63-1.27-3.44s-1.92-1.22-3.23-1.22s-2.75,0.33-4.32,0.99L135.16,8.27L135.16,8.27z M118.78,13.42
					c0-2.21,1.09-3.32,3.28-3.32s3.28,1.11,3.28,3.32v4.06h-6.57v-4.06H118.78z M122.94,28.53c1.62,0,3.02-0.19,4.2-0.56v-2.33
					c-1.48,0.42-2.92,0.64-4.31,0.64s-2.41-0.26-3.07-0.78s-0.99-1.31-0.99-2.37v-3.56h8.97v-6.14c0-1.67-0.46-3.01-1.39-4.01
					s-2.36-1.5-4.29-1.5s-3.37,0.5-4.32,1.5c-0.95,1-1.43,2.34-1.43,4.01v9.81C116.31,26.76,118.52,28.53,122.94,28.53 M111.01,8.34
					c-0.24,0.07-0.42,0.12-0.55,0.16c-0.13,0.04-0.32,0.12-0.56,0.26c-0.25,0.14-0.4,0.23-0.46,0.26c-0.06,0.04-0.24,0.16-0.53,0.37
					c-0.29,0.21-0.48,0.34-0.55,0.39V8.26h-2.4v20.09h2.51V12.18c0.71-0.49,1.16-0.81,1.38-0.95c0.68-0.45,1.45-0.67,2.29-0.67h1.2
					v-2.4h-0.88C111.85,8.16,111.37,8.22,111.01,8.34 M89.9,8.76v2.37c1.32-0.47,2.76-0.71,4.32-0.71s2.61,0.22,3.12,0.67
					c0.52,0.45,0.79,1.15,0.81,2.12v3.07l-4.94,1.38c-2.85,0.8-4.27,2.42-4.27,4.87v1.13c0,3.22,1.64,4.84,4.91,4.84
					c1.67,0,3.11-0.53,4.31-1.59v1.45h2.4V13.22c0-3.41-2-5.12-6-5.12C92.8,8.09,91.25,8.31,89.9,8.76 M91.95,20.73
					c0.38-0.45,1.09-0.82,2.15-1.13l4.02-1.13v6.6c-1.11,0.92-2.28,1.38-3.53,1.38s-2.09-0.22-2.54-0.67
					c-0.45-0.45-0.67-1.14-0.67-2.08v-1.06C91.39,21.81,91.58,21.17,91.95,20.73 M76.17,8.27h-2.4v25.34h2.51v-5.26h3.57
					c1.58,0,2.84-0.46,3.79-1.39c0.95-0.93,1.43-2.22,1.43-3.87V12.85c0-1.48-0.43-2.63-1.29-3.44s-1.95-1.22-3.27-1.22
					s-2.77,0.34-4.34,1.02C76.17,9.21,76.17,8.27,76.17,8.27z M82.53,22.91c0,2.09-1.09,3.14-3.28,3.14h-2.97V11.44
					c1.29-0.61,2.51-0.92,3.64-0.92c1.74,0,2.61,0.86,2.61,2.58V22.91z M58.88,14.2c0,2.05,0.99,3.54,2.97,4.48l3.04,1.45
					c0.89,0.42,1.49,0.82,1.8,1.18c0.31,0.37,0.46,0.88,0.46,1.54v0.71c0,0.89-0.3,1.57-0.9,2.03c-0.6,0.46-1.65,0.69-3.14,0.69
					c-1.49,0-2.85-0.21-4.08-0.64v2.33c1.22,0.38,2.64,0.56,4.24,0.56c4.26,0,6.39-1.65,6.39-4.94v-0.95c0-1.84-1.06-3.27-3.18-4.31
					l-3.04-1.48c-0.8-0.35-1.35-0.73-1.64-1.13c-0.29-0.4-0.44-0.98-0.44-1.73v-0.92c0-0.96,0.25-1.65,0.74-2.07
					c0.49-0.41,1.45-0.62,2.86-0.62c1.41,0,2.71,0.21,3.88,0.64V8.69c-1.29-0.4-2.6-0.6-3.92-0.6c-2.14,0-3.68,0.41-4.62,1.22
					s-1.41,2.04-1.41,3.69L58.88,14.2L58.88,14.2z M46.1,8.27h-2.4v20.09h2.51V11.45c1.29-0.61,2.49-0.92,3.6-0.92
					c1.74,0,2.61,0.86,2.61,2.58v15.25h2.51v-15.5c0-1.48-0.42-2.63-1.27-3.44S51.74,8.2,50.43,8.2s-2.75,0.33-4.32,0.99V8.27H46.1z
					 M27.64,8.76v2.37c1.32-0.47,2.76-0.71,4.32-0.71c1.56,0,2.61,0.22,3.12,0.67c0.52,0.45,0.79,1.15,0.81,2.12v3.07l-4.94,1.38
					c-2.85,0.8-4.27,2.42-4.27,4.87v1.13c0,3.22,1.64,4.84,4.91,4.84c1.67,0,3.11-0.53,4.31-1.59v1.45h2.4V13.22
					c0-3.41-2-5.12-6-5.12C30.53,8.09,28.98,8.31,27.64,8.76 M29.69,20.73c0.38-0.45,1.09-0.82,2.15-1.13l4.02-1.13v6.6
					c-1.11,0.92-2.28,1.38-3.53,1.38c-1.25,0-2.09-0.22-2.54-0.67s-0.67-1.14-0.67-2.08v-1.06C29.12,21.81,29.31,21.17,29.69,20.73
					 M22.34,8.34c-0.24,0.07-0.42,0.12-0.55,0.16c-0.13,0.04-0.32,0.12-0.56,0.26c-0.25,0.14-0.4,0.23-0.46,0.26
					c-0.06,0.04-0.24,0.16-0.53,0.37c-0.29,0.21-0.48,0.34-0.55,0.39V8.26h-2.4v20.09h2.51V12.18c0.71-0.49,1.16-0.81,1.38-0.95
					c0.68-0.45,1.45-0.67,2.29-0.67h1.2v-2.4h-0.88C23.18,8.16,22.7,8.22,22.34,8.34 M7.06,4.63L6.35,8.27H4.06v2.22h2.19v13.52
					c0,2.99,1.58,4.48,4.73,4.48c0.82,0,1.71-0.12,2.65-0.35v-2.29c-0.78,0.26-1.58,0.39-2.4,0.39s-1.44-0.18-1.84-0.55
					c-0.4-0.36-0.6-0.96-0.6-1.78V10.5h4.48V8.28H8.79V4.64L7.06,4.63L7.06,4.63z"/>
			</g>
		</g>
	</g>
</g>
</svg>
